<svg viewBox="0 0 630 630" xmlns="http://www.w3.org/2000/svg">
  <g id="Page-1" fill="none" fill-rule="evenodd">
    <g id="liquoricejs">
      <path id="background" fill="#F7DF1E" fill-rule="nonzero" d="M0 0h630v630H0z"/>
      <path d="M359.8 328.05c0-10.5-3.15-19.65-9.45-27.45-7.8-9.6-18.6-14.4-32.4-14.4-14.4 0-25.35 4.95-32.85 14.85-6.3 7.8-9.45 16.8-9.45 27 0 11.1.9 21.75 2.7 31.95 1.8 9.6 5.85 24.75 12.15 45.45 5.4 17.7 9 31.2 10.8 40.5 3.3 16.5 4.95 33.15 4.95 49.95 0 21-6.075 37.05-18.225 48.15-12.15 11.1-27.675 16.65-46.575 16.65-14.4 0-26.25-4.2-35.55-12.6-9.3-8.4-13.95-20.7-13.95-36.9 0-2.7 1.35-4.05 4.05-4.05 2.4.9 3.6 2.25 3.6 4.05 0 7.5 3.75 11.25 11.25 11.25 7.8 0 11.7-3.75 11.7-11.25 0-6.3-2.25-12.375-6.75-18.225-4.5-5.85-11.1-8.775-19.8-8.775-9.3 0-16.35 3.15-21.15 9.45-3.9 4.8-5.85 10.65-5.85 17.55 0 25.8 9 45.15 27 58.05 13.2 9.6 28.35 14.4 45.45 14.4 21 0 39.45-6 55.35-18 21.6-15.6 32.4-38.85 32.4-69.75 0-19.5-1.8-37.8-5.4-54.9-1.2-5.1-2.7-11.1-4.5-18-1.8-6.9-4.05-14.7-6.75-23.4s-4.875-15.9-6.525-21.6c-1.65-5.7-2.775-10.05-3.375-13.05-2.7-12-4.05-24.3-4.05-36.9 0-4.5 1.275-8.85 3.825-13.05 2.55-4.2 7.725-6.3 15.525-6.3 5.7 0 10.275 1.725 13.725 5.175 3.45 3.45 5.175 8.175 5.175 14.175 0 1.5-1.2 2.7-3.6 3.6-2.7 0-4.05-1.2-4.05-3.6 0-7.8-3.75-11.7-11.25-11.7-3.3 0-6.075 1.125-8.325 3.375-2.25 2.25-3.375 5.025-3.375 8.325 0 6.6 2.25 12.675 6.75 18.225 4.5 5.55 11.25 8.325 20.25 8.325 8.7 0 15.6-3.15 20.7-9.45 3.9-4.8 5.85-10.5 5.85-17.1zM536.2 496.8c0-19.5-6.9-36.15-20.7-49.95-15.3-15.6-35.25-23.4-59.85-23.4-18 0-32.1-5.1-42.3-15.3-10.2-10.2-15.3-22.05-15.3-35.55 0-17.1 8.4-31.8 25.2-44.1 18.6-13.2 44.7-19.8 78.3-19.8 4.8.3 8.55 1.35 11.25 3.15 5.1 3.3 7.65 8.7 7.65 16.2 0 12.6-6.3 18.9-18.9 18.9-1.5 0-2.7-1.2-3.6-3.6 0-2.1 1.2-3.45 3.6-4.05 7.8 0 11.7-3.75 11.7-11.25 0-3.3-1.125-6.075-3.375-8.325-2.25-2.25-5.025-3.375-8.325-3.375-6.6 0-12.675 2.25-18.225 6.75-5.55 4.5-8.325 11.25-8.325 20.25s3.15 15.9 9.45 20.7c4.8 3.9 10.5 5.85 17.1 5.85 10.5 0 19.65-3.15 27.45-9.45 9.6-7.8 14.4-18.6 14.4-32.4 0-14.1-4.95-25.05-14.85-32.85-7.8-6-16.8-9-27-9-41.1 0-73.05 9-95.85 27-20.1 15.6-30.15 35.4-30.15 59.4 0 19.5 6.9 36.3 20.7 50.4 14.7 15.6 34.5 23.4 59.4 23.4 17.1 0 31.35 5.4 42.75 16.2 9.9 9.6 14.85 21 14.85 34.2 0 17.7-8.25 32.4-24.75 44.1-18.6 13.2-44.7 19.8-78.3 19.8-4.8 0-8.7-1.05-11.7-3.15-5.1-3.3-7.65-8.7-7.65-16.2 0-12.6 6.3-18.9 18.9-18.9 1.8 0 3.15 1.2 4.05 3.6 0 2.7-1.2 4.05-3.6 4.05-7.8 0-11.7 3.75-11.7 11.25 0 3.3 1.125 6.075 3.375 8.325 2.25 2.25 5.025 3.375 8.325 3.375 6.6 0 12.675-2.25 18.225-6.75 5.55-4.5 8.325-11.25 8.325-20.25 0-8.7-3.15-15.6-9.45-20.7-4.8-3.9-10.5-5.85-17.1-5.85-11.1 0-20.4 3.15-27.9 9.45-9.6 7.8-14.4 18.6-14.4 32.4 0 14.4 4.95 25.35 14.85 32.85 8.1 6.3 17.25 9.45 27.45 9.45 41.1 0 73.05-9.15 95.85-27.45 20.1-15.6 30.15-35.4 30.15-59.4z" id="JS" fill="#000"/>
    </g>
  </g>
</svg>
